Coordinates
version=1
nRows=26
nColumns=24
inDegrees=yes

Units are S.I. units (second, meters, Newtons, ...)
Angles are in degrees.

endheader
time	pelvis_tilt	pelvis_list	pelvis_rotation	pelvis_tx	pelvis_ty	pelvis_tz	hip_flexion_r	hip_adduction_r	hip_rotation_r	knee_angle_r	ankle_angle_r	subtalar_angle_r	mtp_angle_r	hip_flexion_l	hip_adduction_l	hip_rotation_l	knee_angle_l	ankle_angle_l	subtalar_angle_l	mtp_angle_l	lumbar_extension	lumbar_bending	lumbar_rotation
      6.36000000	      0.97253668	      4.11768673	     -0.52741859	      2.37981821	      1.06254482	     -0.26608311	     13.58529115	     -3.97456188	     -1.51333016	    -60.27636981	    -15.95298244	    -37.56557212	      0.00000000	      2.80617456	      9.74854177	      4.33987115	     -8.82858141	      8.42939829	    -16.48416290	      0.00000000	    -10.29678093	     -0.79529589	   -181.08681827
      6.37000000	      0.73884827	      3.76137398	     -0.20182389	      2.39207223	      1.06349554	     -0.26694574	     15.11943624	     -3.32868738	     -1.22320110	    -59.94678850	    -13.68798334	    -36.65266994	      0.00000000	      1.82925642	      9.40901691	      5.06584904	     -7.94653962	      8.27497717	    -16.89663919	      0.00000000	    -10.19023401	     -0.32669085	   -181.54714424
      6.38000000	      0.46773736	      3.47665800	      0.18735126	      2.40429007	      1.06416996	     -0.26778009	     16.62290947	     -2.80456280	     -1.00944130	    -59.38954144	    -11.57445144	    -35.74093854	      0.00000000	      0.92353043	      9.12429732	      5.73835281	     -7.11528296	      8.14915881	    -17.18499024	      0.00000000	    -10.04012946	      0.04182003	   -182.08620743
      6.39000000	      0.24273795	      3.24612533	      0.57350522	      2.41648562	      1.06466689	     -0.26852555	     18.00434689	     -2.36624866	     -0.80118769	    -58.59410547	     -9.57580878	    -34.80018882	      0.00000000	     -0.01290988	      8.88065126	      6.36032931	     -6.30409221	      8.02079226	    -17.52697872	      0.00000000	     -9.95402912	      0.33154963	   -182.59612489
      6.40000000	      0.01972728	      3.08090844	      0.99361172	      2.42865660	      1.06494361	     -0.26923053	     19.30156429	     -2.03817966	     -0.62724749	    -57.55829589	     -7.76911541	    -33.91499347	      0.00000000	     -0.92365367	      8.69434600	      6.95430266	     -5.53914859	      7.88405221	    -17.85826234	      0.00000000	     -9.87803041	      0.53168061	   -183.13459414
      6.41000000	     -0.17642642	      2.97678928	      1.43357940	      2.44082234	      1.06504223	     -0.26989487	     20.47889652	     -1.81305490	     -0.47323215	    -56.27458233	     -6.16815229	    -33.10570059	      0.00000000	     -1.83857688	      8.56350755	      7.50633377	     -4.81637260	      7.73516594	    -18.20272092	      0.00000000	     -9.84094847	      0.65159861	   -183.69507708
      6.42000000	     -0.34930863	      2.92342734	      1.89850793	      2.45300373	      1.06497854	     -0.27052228	     21.52656411	     -1.67611026	     -0.33598752	    -54.73081027	     -4.79944251	    -32.40745590	      0.00000000	     -2.75604907	      8.47755736	      8.01732405	     -4.13739520	      7.57493285	    -18.55621000	      0.00000000	     -9.83165230	      0.70057962	   -184.28252042
      6.43000000	     -0.50195940	      2.91781571	      2.37860971	      2.46521884	      1.06476643	     -0.27112877	     22.44099678	     -1.62725081	     -0.21862300	    -52.92443897	     -3.62839166	    -31.77356625	      0.00000000	     -3.67860859	      8.43502955	      8.47438216	     -3.49253567	      7.33095990	    -18.96181066	      0.00000000	     -9.84466661	      0.68926945	   -184.91238217
      6.44000000	     -0.63302361	      2.96130377	      2.87223089	      2.47749900	      1.06442088	     -0.27171857	     23.21047365	     -1.66530977	     -0.12033296	    -50.85171026	     -2.63941291	    -31.19750323	      0.00000000	     -4.62044382	      8.43519312	      8.91951842	     -2.87028954	      7.09486584	    -19.34434633	      0.00000000	     -9.87692730	      0.61546116	   -185.55307278
      6.45000000	     -0.74490533	      3.04108077	      3.37068974	      2.48987899	      1.06395829	     -0.27229434	     23.82779059	     -1.77577309	     -0.04931119	    -48.50685271	     -1.76829509	    -30.60246746	      0.00000000	     -5.58234131	      8.46264970	      9.32810702	     -2.26740555	      6.85700280	    -19.69443229	      0.00000000	     -9.91910881	      0.49707094	   -186.20597049
      6.46000000	     -0.85971889	      3.14963026	      3.87189931	      2.50239434	      1.06336533	     -0.27286536	     24.30961623	     -1.95431827	     -0.02430640	    -45.89068285	     -0.95089420	    -29.87697454	      0.00000000	     -6.55191095	      8.50765671	      9.74112098	     -1.66886474	      6.55640934	    -20.06713664	      0.00000000	     -9.93627711	      0.34244990	   -186.87167533
      6.47000000	     -0.98600488	      3.28072440	      4.37838600	      2.51507597	      1.06263867	     -0.27345903	     24.66009077	     -2.19914519	     -0.07416740	    -43.00865074	     -0.16650393	    -28.98499011	      0.00000000	     -7.52432178	      8.56063391	     10.16802733	     -1.07195624	      6.24819085	    -20.39896343	      0.00000000	     -9.91281783	      0.16794235	   -187.52539070
      6.48000000	     -1.04099280	      3.41847413	      4.86323421	      2.52795750	      1.06190226	     -0.27402454	     24.77851364	     -2.47068865	     -0.20175381	    -39.84732462	      0.63561290	    -27.83889801	      0.00000000	     -8.57129616	      8.59912889	     10.45785130	     -0.49657903	      5.99762977	    -20.57144442	      0.00000000	     -9.94827661	     -0.01026072	   -188.17627165
      6.49000000	     -1.10886868	      3.58151228	      5.34364083	      2.54105526	      1.06102658	     -0.27462163	     24.77128219	     -2.80791983	     -0.47288488	    -36.46188116	      1.51619664	    -26.31252454	      0.00000000	     -9.62276911	      8.64375810	     10.77848102	      0.07799604	      5.72381851	    -20.69589437	      0.00000000	     -9.93420100	     -0.21017294	   -188.79915184
      6.50000000	     -1.16843638	      3.77207670	      5.80837565	      2.55436710	      1.06002651	     -0.27523894	     24.63172277	     -3.19891633	     -0.91680263	    -32.89958588	      2.45211024	    -24.38703130	      0.00000000	    -10.68855554	      8.69642697	     11.09221404	      0.63071833	      5.43846767	    -20.76478766	      0.00000000	     -9.90401424	     -0.43186380	   -189.39645342
      6.51000000	     -1.18921881	      3.99795407	      6.25122902	      2.56792895	      1.05892480	     -0.27586231	     24.34208586	     -3.63246837	     -1.56297045	    -29.21740251	      3.43294823	    -22.07518552	      0.00000000	    -11.80106937	      8.76023891	     11.38374153	      1.15755626	      5.17012424	    -20.73734221	      0.00000000	     -9.88482962	     -0.68148828	   -189.95037605
      6.52000000	     -1.16553571	      4.26006578	      6.66414762	      2.58172128	      1.05772313	     -0.27646166	     23.92605986	     -4.08700233	     -2.42347801	    -25.49804313	      4.41160428	    -19.43555220	      0.00000000	    -12.94807894	      8.83642469	     11.65825762	      1.62545369	      4.92501681	    -20.61352815	      0.00000000	     -9.89486672	     -0.96397738	   -190.46070685
      6.53000000	     -1.09411754	      4.55475826	      7.03930052	      2.59574304	      1.05642588	     -0.27700973	     23.41389907	     -4.53391423	     -3.47850369	    -21.83744890	      5.32958736	    -16.58023689	      0.00000000	    -14.12368345	      8.92088360	     11.92414517	      2.01975339	      4.70171994	    -20.40731458	      0.00000000	     -9.93724757	     -1.27542434	   -190.91168862
      6.54000000	     -0.99835138	      4.86360927	      7.38055796	      2.60997909	      1.05502641	     -0.27746732	     22.85791515	     -4.93644720	     -4.67253098	    -18.32142496	      6.13354734	    -13.69724439	      0.00000000	    -15.28534216	      8.99527182	     12.22387292	      2.31237000	      4.51188464	    -20.12985612	      0.00000000	     -9.98450594	     -1.60376293	   -191.31610901
      6.55000000	     -0.78936946	      5.15507666	      7.61817331	      2.62440769	      1.05366472	     -0.27770918	     22.17766683	     -5.20334795	     -5.79880172	    -14.98735699	      6.64453427	    -11.10478272	      0.00000000	    -16.49876578	      9.03495579	     12.43587490	      2.48424061	      4.32343391	    -19.83944499	      0.00000000	    -10.15109984	     -1.91097210	   -191.59800308
      6.56000000	     -0.54473458	      5.41234814	      7.79361343	      2.63901148	      1.05229642	     -0.27776335	     21.45503957	     -5.33907424	     -6.74233294	    -11.88445651	      6.87784575	     -9.05774961	      0.00000000	    -17.66713807	      9.02590296	     12.67909413	      2.50659917	      4.15851073	    -19.51764838	      0.00000000	    -10.33786459	     -2.18848042	   -191.80518787
      6.57000000	     -0.25049842	      5.62129475	      7.88682875	      2.65377211	      1.05097789	     -0.27761121	     20.67305994	     -5.33104781	     -7.33864919	     -9.03908750	      6.80100803	     -7.79685646	      0.00000000	    -18.78587614	      8.96619780	     12.92278197	      2.35937537	      4.00836658	    -19.18792636	      0.00000000	    -10.56330100	     -2.41957273	   -191.91560076
      6.58000000	      0.08291744	      5.78027463	      7.90790046	      2.66868709	      1.04974050	     -0.27728531	     19.85304145	     -5.21334355	     -7.62856179	     -6.51061947	      6.52713707	     -7.28037431	      0.00000000	    -19.82929117	      8.86516827	     13.17118214	      2.01638734	      3.86468814	    -18.86227986	      0.00000000	    -10.81582815	     -2.60273109	   -191.94109510
      6.59000000	      0.48430229	      5.89670609	      7.82129986	      2.68375875	      1.04864143	     -0.27679269	     19.00446947	     -5.00921131	     -7.71042275	     -4.39660073	      6.17116121	     -7.30863940	      0.00000000	    -20.81027173	      8.75662764	     13.25730628	      1.45632516	      3.71470601	    -18.48014758	      0.00000000	    -11.12849741	     -2.74027180	   -191.85310466
      6.60000000	      0.91457045	      5.97430599	      7.67013041	      2.69901355	      1.04765249	     -0.27621380	     18.19220183	     -4.75385349	     -7.73761444	     -2.78147435	      5.84915874	     -7.72699144	      0.00000000	    -21.68801265	      8.64745099	     13.21739026	      0.66646268	      3.60262755	    -17.97008640	      0.00000000	    -11.44801574	     -2.83743885	   -191.70300314
      6.61000000	      1.37047479	      6.01780941	      7.46616263	      2.71448475	      1.04678011	     -0.27559418	     17.46237258	     -4.46578483	     -7.93605022	     -1.76754817	      5.72092529	     -8.15262378	      0.00000000	    -22.45168925	      8.54978793	     12.95107804	     -0.36861924	      3.55398670	    -17.24015854	      0.00000000	    -11.76425070	     -2.89728890	   -191.49475087
